<svg viewBox="0 0 12 15" fill="none" xmlns="http://www.w3.org/2000/svg">
<path d="M1.5 15C1.0875 15 0.7345 14.8533 0.441 14.5598C0.1475 14.2663 0.0005 13.913 0 13.5V4.5C0 3.8 0.2125 3.1875 0.6375 2.6625C1.0625 2.1375 1.6 1.7875 2.25 1.6125V0.750003C2.25 0.537503 2.322 0.359253 2.466 0.215253C2.61 0.0712525 2.788 -0.000497405 3 2.59516e-06H3.75C3.9625 2.59516e-06 4.14075 0.0720027 4.28475 0.216003C4.42875 0.360003 4.5005 0.538003 4.5 0.750003V1.5H7.5V0.750003C7.5 0.537503 7.572 0.359503 7.716 0.216003C7.86 0.0725027 8.038 0.000502595 8.25 2.59516e-06H9C9.2125 2.59516e-06 9.39075 0.0720027 9.53475 0.216003C9.67875 0.360003 9.7505 0.538003 9.75 0.750003V1.6125C10.4 1.7875 10.9375 2.1375 11.3625 2.6625C11.7875 3.1875 12 3.8 12 4.5V13.5C12 13.9125 11.8533 14.2658 11.5598 14.5598C11.2663 14.8538 10.913 15.0005 10.5 15H1.5ZM1.5 13.5H10.5V4.5C10.5 4.0875 10.3533 3.7345 10.0598 3.441C9.76625 3.1475 9.413 3.0005 9 3H3C2.5875 3 2.2345 3.147 1.941 3.441C1.6475 3.735 1.5005 4.088 1.5 4.5V13.5ZM7.875 9V9.75C7.875 9.9625 7.947 10.1408 8.091 10.2848C8.235 10.4288 8.413 10.5005 8.625 10.5C8.837 10.4995 9.01525 10.4275 9.15975 10.284C9.30425 10.1405 9.376 9.9625 9.375 9.75V8.25C9.375 8.0375 9.303 7.8595 9.159 7.716C9.015 7.5725 8.837 7.5005 8.625 7.5H3.375C3.1625 7.5 2.9845 7.572 2.841 7.716C2.6975 7.86 2.6255 8.038 2.625 8.25C2.6245 8.462 2.6965 8.64025 2.841 8.78475C2.9855 8.92925 3.1635 9.001 3.375 9H7.875Z" fill="currentColor"/>
</svg>
