<svg width="24" height="24" viewBox="0 0 24 24" fill="none" xmlns="http://www.w3.org/2000/svg">
<path d="M18.3158 6.77778V3.94444C18.3158 3.69396 18.2215 3.45374 18.0537 3.27662C17.8859 3.0995 17.6584 3 17.4211 3H5.78947C5.31488 3 4.85972 3.19901 4.52412 3.55324C4.18853 3.90748 4 4.38792 4 4.88889C4 5.38985 4.18853 5.8703 4.52412 6.22454C4.85972 6.57877 5.31488 6.77778 5.78947 6.77778H19.2105C19.4478 6.77778 19.6754 6.87728 19.8432 7.0544C20.011 7.23152 20.1053 7.47174 20.1053 7.72222V11.5M20.1053 11.5H17.4211C16.9465 11.5 16.4913 11.699 16.1557 12.0532C15.8201 12.4075 15.6316 12.8879 15.6316 13.3889C15.6316 13.8899 15.8201 14.3703 16.1557 14.7245C16.4913 15.0788 16.9465 15.2778 17.4211 15.2778H20.1053C20.3426 15.2778 20.5701 15.1783 20.7379 15.0012C20.9057 14.824 21 14.5838 21 14.3333V12.4444C21 12.194 20.9057 11.9537 20.7379 11.7766C20.5701 11.5995 20.3426 11.5 20.1053 11.5Z" stroke="white" stroke-width="2" stroke-linecap="round" stroke-linejoin="round"/>
<path d="M4 4.88889V18.1111C4 18.6121 4.18853 19.0925 4.52412 19.4468C4.85972 19.801 5.31488 20 5.78947 20H19.2105C19.4478 20 19.6754 19.9005 19.8432 19.7234C20.011 19.5463 20.1053 19.306 20.1053 19.0556V15.2778" stroke="white" stroke-width="2" stroke-linecap="round" stroke-linejoin="round"/>
</svg>
